<svg
        xmlns="http://www.w3.org/2000/svg"
        width="100"
        height="100"
        viewBox="0 0 100 100"
        fill="none"
      >
        <g filter="url(#filter0_d_75_73)">
          <path
            d="M11.0001 50.4456C10.9828 60.6536 15.0225 70.4504 22.2304 77.6807C29.4384 84.9111 39.2242 88.9827 49.435 88.9999C59.6458 89.0172 69.4453 84.9786 76.6776 77.7727C83.91 70.5667 87.9827 60.7837 88 50.5757V50.2844C87.9987 47.3237 87.6495 44.3735 86.9595 41.4943C86.6781 40.4603 86.0062 39.576 85.0855 39.0275C84.1647 38.479 83.067 38.3093 82.0235 38.5541C80.98 38.7989 80.0724 39.439 79.4917 40.3397C78.9111 41.2404 78.7029 42.3312 78.9109 43.3823C80.4676 49.7959 79.8858 56.5423 77.2541 62.5949C74.6224 68.6474 70.0849 73.6748 64.3321 76.9119C58.5792 80.149 51.926 81.4186 45.385 80.5275C38.844 79.6363 32.7732 76.6333 28.0965 71.9753C23.4199 67.3173 20.3934 61.2594 19.4777 54.7236C18.562 48.1877 19.8071 41.5317 23.0237 35.7684C26.2402 30.0051 31.2521 25.4502 37.2965 22.7967C43.3409 20.1433 50.087 19.5365 56.5081 21.0689C57.5725 21.3172 58.6919 21.1337 59.6213 20.5585C60.5506 19.9833 61.214 19.0634 61.4662 18.0002C61.5944 17.4761 61.6171 16.9319 61.5331 16.399C61.4491 15.8661 61.26 15.3552 60.9768 14.896C60.6937 14.4367 60.3221 14.0383 59.8836 13.7239C59.4451 13.4094 58.9485 13.1852 58.4227 13.0642C53.5098 11.8839 48.4124 11.6831 43.4219 12.4733C38.4314 13.2635 33.6456 15.0293 29.3381 17.6696C25.0306 20.3099 21.2858 23.773 18.3178 27.861C15.3497 31.949 13.2167 36.5817 12.0406 41.4943C11.3523 44.4284 11.0031 47.4319 11.0001 50.4456Z"
            fill="url(#paint0_linear_75_73)"
          />
        </g>
        <g filter="url(#filter1_d_75_73)">
          <path
            d="M70.1689 20.836C70.1 20.9049 70.0682 20.9738 70.0311 21.0056C69.0649 22.0307 68.4711 23.3505 68.3449 24.7533V25.4265C68.3449 25.5961 68.3131 25.7286 68.3131 25.8983C68.1691 27.3801 67.7339 28.8189 67.0323 30.1321C66.3307 31.4453 65.3767 32.6071 64.2248 33.5508C63.0729 34.4944 61.746 35.2014 60.3201 35.6311C58.8943 36.0608 57.3976 36.2047 55.9159 36.0546C55.4163 36.011 54.9202 35.9331 54.4312 35.8214C54.1433 35.7616 53.8598 35.6819 53.5828 35.5829C52.3807 35.2796 51.1423 35.1441 49.9029 35.18C46.2886 35.2507 42.8254 36.6423 40.1676 39.092C40.0351 39.2245 39.8654 39.3306 39.7275 39.4949C38.273 40.8383 37.1048 42.4614 36.293 44.2671C35.4811 46.0727 35.0423 48.0236 35.0029 50.0029C34.9635 51.9821 35.3243 53.949 36.0636 55.7855C36.803 57.622 37.9056 59.2903 39.3055 60.6905C40.7054 62.0907 42.3737 63.1939 44.2104 63.9339C46.0471 64.674 48.0143 65.0356 49.9942 64.9972C51.9741 64.9588 53.9259 64.5212 55.7325 63.7105C57.5391 62.8998 59.1633 61.7328 60.5079 60.2794C61.1157 59.6658 61.6692 59.0007 62.1622 58.2916C63.348 56.5864 64.1598 54.6499 64.5446 52.6091C64.9293 50.5683 64.8782 48.4692 64.3945 46.4496C64.3107 46.1832 64.2417 45.9125 64.1878 45.6385C64.1878 45.6014 64.1559 45.5696 64.1559 45.5007C63.8184 44.0492 63.771 42.5453 64.0164 41.0753C64.2617 39.6054 64.7951 38.1984 65.5859 36.9351C66.3766 35.6718 67.4091 34.577 68.6242 33.7136C69.8393 32.8503 71.213 32.2353 72.6664 31.9041C73.188 31.7762 73.7207 31.6981 74.2571 31.6709L74.4904 31.6338C74.7263 31.6073 74.9637 31.5966 75.2009 31.602H75.2699C76.7358 31.4614 78.1075 30.817 79.1513 29.7785C79.3899 29.5081 79.6285 29.2484 79.83 28.9674C80.3131 28.2911 80.6572 27.5257 80.8423 26.7155C81.0274 25.9052 81.0498 25.0664 80.9083 24.2474C80.7667 23.4285 80.464 22.6458 80.0177 21.9446C79.5714 21.2435 78.9903 20.6378 78.3082 20.1628C77.0881 19.3025 75.6042 18.8986 74.1162 19.0217C72.6283 19.1447 71.231 19.787 70.1689 20.836Z"
            fill="url(#paint1_linear_75_73)"
          />
        </g>
        <defs>
          <filter
            id="filter0_d_75_73"
            x="7"
            y="12"
            width="85"
            height="85"
            filterUnits="userSpaceOnUse"
            color-interpolation-filters="sRGB"
          >
            <feFlood flood-opacity="0" result="BackgroundImageFix" />
            <feColorMatrix
              in="SourceAlpha"
              type="matrix"
              values="0 0 0 0 0 0 0 0 0 0 0 0 0 0 0 0 0 0 127 0"
              result="hardAlpha"
            />
            <feOffset dy="4" />
            <feGaussianBlur stdDeviation="2" />
            <feComposite in2="hardAlpha" operator="out" />
            <feColorMatrix
              type="matrix"
              values="0 0 0 0 0 0 0 0 0 0 0 0 0 0 0 0 0 0 0.25 0"
            />
            <feBlend
              mode="normal"
              in2="BackgroundImageFix"
              result="effect1_dropShadow_75_73"
            />
            <feBlend
              mode="normal"
              in="SourceGraphic"
              in2="effect1_dropShadow_75_73"
              result="shape"
            />
          </filter>
          <filter
            id="filter1_d_75_73"
            x="31"
            y="19"
            width="54"
            height="54"
            filterUnits="userSpaceOnUse"
            color-interpolation-filters="sRGB"
          >
            <feFlood flood-opacity="0" result="BackgroundImageFix" />
            <feColorMatrix
              in="SourceAlpha"
              type="matrix"
              values="0 0 0 0 0 0 0 0 0 0 0 0 0 0 0 0 0 0 127 0"
              result="hardAlpha"
            />
            <feOffset dy="4" />
            <feGaussianBlur stdDeviation="2" />
            <feComposite in2="hardAlpha" operator="out" />
            <feColorMatrix
              type="matrix"
              values="0 0 0 0 0 0 0 0 0 0 0 0 0 0 0 0 0 0 0.25 0"
            />
            <feBlend
              mode="normal"
              in2="BackgroundImageFix"
              result="effect1_dropShadow_75_73"
            />
            <feBlend
              mode="normal"
              in="SourceGraphic"
              in2="effect1_dropShadow_75_73"
              result="shape"
            />
          </filter>
          <linearGradient
            id="paint0_linear_75_73"
            x1="78.1721"
            y1="22.1924"
            x2="20.9581"
            y2="78.6419"
            gradientUnits="userSpaceOnUse"
          >
            <stop offset="0.09" stop-color="#63B4FF" />
            <stop offset="0.552083" stop-color="#1980DF" />
          </linearGradient>
          <linearGradient
            id="paint1_linear_75_73"
            x1="79.48"
            y1="20.1363"
            x2="38.6638"
            y2="61.4952"
            gradientUnits="userSpaceOnUse"
          >
            <stop offset="0.4" stop-color="#62B3FF" />
            <stop offset="0.89" stop-color="#248BEB" />
          </linearGradient>
        </defs>
      </svg>